<mxfile host="app.diagrams.net" modified="2023-06-27T08:59:21.521Z" agent="Mozilla/5.0 (Macintosh; Intel Mac OS X 10_15_7) AppleWebKit/605.1.15 (KHTML, like Gecko) Version/16.4 Safari/605.1.15" etag="IFfcZaXjbA0tS3JxLn-t" version="21.5.0" type="device">
  <diagram name="Page-1" id="JpVeMY-iX-eV84npX_2D">
    <mxGraphModel dx="954" dy="553" grid="1" gridSize="10" guides="1" tooltips="1" connect="1" arrows="1" fold="1" page="1" pageScale="1" pageWidth="827" pageHeight="1169" math="0" shadow="0">
      <root>
        <mxCell id="0" />
        <mxCell id="1" parent="0" />
        <mxCell id="40W4WgZ66Mj0KqgYtexW-1" value="" style="rounded=1;whiteSpace=wrap;html=1;fillColor=none;dashed=1;strokeWidth=2;" vertex="1" parent="1">
          <mxGeometry x="250" y="40" width="420" height="250" as="geometry" />
        </mxCell>
        <mxCell id="40W4WgZ66Mj0KqgYtexW-2" value="&lt;b&gt;&lt;font style=&quot;font-size: 18px;&quot;&gt;Legacy&lt;br&gt;&amp;nbsp;Code&lt;/font&gt;&lt;/b&gt;" style="rounded=0;whiteSpace=wrap;html=1;fillColor=#f5f5f5;fontColor=#333333;strokeColor=#666666;" vertex="1" parent="1">
          <mxGeometry x="440" y="80" width="190" height="180" as="geometry" />
        </mxCell>
        <mxCell id="40W4WgZ66Mj0KqgYtexW-6" value="&lt;font color=&quot;#ffffff&quot; style=&quot;font-size: 18px;&quot;&gt;&lt;b&gt;gFaaS Adapter&lt;/b&gt;&lt;/font&gt;" style="rounded=0;whiteSpace=wrap;html=1;fillColor=#000000;" vertex="1" parent="1">
          <mxGeometry x="290" y="120" width="190" height="100" as="geometry" />
        </mxCell>
        <mxCell id="40W4WgZ66Mj0KqgYtexW-46" value="&lt;span style=&quot;font-size: 15px;&quot;&gt;&lt;b&gt;Adapt Pattern&lt;/b&gt;&lt;/span&gt;" style="text;html=1;strokeColor=none;fillColor=none;align=center;verticalAlign=middle;whiteSpace=wrap;rounded=0;" vertex="1" parent="1">
          <mxGeometry x="270" y="40" width="140" height="30" as="geometry" />
        </mxCell>
      </root>
    </mxGraphModel>
  </diagram>
</mxfile>
